<svg width="1280" height="1280" viewBox="0 0 1280 1280" fill="none" xmlns="http://www.w3.org/2000/svg">
<g id="bg_3d_layer">
<path id="Rectangle 1" d="M1151.56 903.756L1157.55 909.749L1163.54 903.756L1157.55 897.762L1151.56 903.756Z" fill="url(#paint0_linear)" fill-opacity="0.24"/>
<path id="Rectangle 2" d="M977 949.456L979.997 952.452L982.993 949.456L979.997 946.459L977 949.456Z" fill="url(#paint1_linear)" fill-opacity="0.24"/>
<path id="Rectangle 5" d="M1009.96 890.27L1014.46 894.765L1018.95 890.27L1014.46 885.775L1009.96 890.27Z" fill="url(#paint2_linear)" fill-opacity="0.24"/>
<path id="Rectangle 6" d="M1152.31 714.214L1155.3 717.211L1158.3 714.214L1155.3 711.218L1152.31 714.214Z" fill="url(#paint3_linear)" fill-opacity="0.24"/>
<path id="Rectangle 7" d="M1072.89 844.571L1075.89 847.568L1078.89 844.571L1075.89 841.574L1072.89 844.571Z" fill="url(#paint4_linear)" fill-opacity="0.24"/>
<path id="Rectangle 3" d="M1015.21 686.495L1019.7 690.99L1024.2 686.495L1019.7 682L1015.21 686.495Z" fill="url(#paint5_linear)" fill-opacity="0.24"/>
<path id="Rectangle 4" d="M1196.01 855.808L1199 858.805L1202 855.808L1199 852.812L1196.01 855.808Z" fill="url(#paint6_linear)" fill-opacity="0.24"/>
<path id="Rectangle 1_2" d="M214.343 408.234L218.646 412.538L222.95 408.234L218.646 403.931L214.343 408.234Z" fill="white" fill-opacity="0.08"/>
<path id="Rectangle 2_2" d="M89 441.049L91.1518 443.201L93.3036 441.049L91.1518 438.897L89 441.049Z" fill="white" fill-opacity="0.04"/>
<path id="Rectangle 5_2" d="M112.67 398.551L115.898 401.779L119.125 398.551L115.898 395.323L112.67 398.551Z" fill="white" fill-opacity="0.12"/>
<path id="Rectangle 6_2" d="M214.881 272.132L217.033 274.284L219.184 272.132L217.033 269.98L214.881 272.132Z" fill="white" fill-opacity="0.04"/>
<path id="Rectangle 7_2" d="M157.858 365.736L160.01 367.888L162.162 365.736L160.01 363.584L157.858 365.736Z" fill="white" fill-opacity="0.24"/>
<path id="Rectangle 3_2" d="M116.436 252.228L119.663 255.455L122.891 252.228L119.663 249L116.436 252.228Z" fill="white" fill-opacity="0.04"/>
<path id="Rectangle 4_2" d="M247.696 373.805L249.848 375.957L252 373.805L249.848 371.653L247.696 373.805Z" fill="white" fill-opacity="0.4"/>
<path id="Rectangle 1_3" d="M294 1025L296 1027L298 1025L296 1023L294 1025Z" fill="white" fill-opacity="0.71"/>
<path id="Rectangle 2_3" d="M78 1044.05L80.1518 1046.2L82.3036 1044.05L80.1518 1041.9L78 1044.05Z" fill="white" fill-opacity="0.04"/>
<path id="Rectangle 5_3" d="M101.67 1001.55L104.898 1004.78L108.125 1001.55L104.898 998.323L101.67 1001.55Z" fill="white" fill-opacity="0.12"/>
<path id="Rectangle 6_3" d="M203.881 875.132L206.033 877.284L208.184 875.132L206.033 872.98L203.881 875.132Z" fill="white" fill-opacity="0.04"/>
<path id="Rectangle 7_3" d="M146.858 968.736L149.01 970.888L151.162 968.736L149.01 966.584L146.858 968.736Z" fill="white" fill-opacity="0.24"/>
<path id="Rectangle 3_3" d="M105.436 855.228L108.663 858.455L111.891 855.228L108.663 852L105.436 855.228Z" fill="white" fill-opacity="0.04"/>
<g id="Ellipse 2" filter="url(#filter0_f)">
<circle cx="262" cy="1053" r="48" fill="white" fill-opacity="0.01"/>
</g>
<g id="Ellipse 4" filter="url(#filter1_f)">
<circle cx="175.5" cy="1100.5" r="19.5" fill="white" fill-opacity="0.04"/>
</g>
<g id="Ellipse 3" filter="url(#filter2_f)">
<circle cx="273" cy="1069" r="2" fill="white" fill-opacity="0.13"/>
</g>
<path id="Rectangle 1_4" d="M1062.66 840.766L1058.35 836.462L1054.05 840.766L1058.35 845.069L1062.66 840.766Z" fill="white" fill-opacity="0.08"/>
<path id="Rectangle 2_4" d="M1188 807.951L1185.85 805.799L1183.7 807.951L1185.85 810.103L1188 807.951Z" fill="white" fill-opacity="0.04"/>
<path id="Rectangle 5_4" d="M1164.33 850.449L1161.1 847.221L1157.87 850.449L1161.1 853.677L1164.33 850.449Z" fill="white" fill-opacity="0.12"/>
<path id="Rectangle 6_4" d="M1062.12 976.868L1059.97 974.716L1057.82 976.868L1059.97 979.02L1062.12 976.868Z" fill="white" fill-opacity="0.04"/>
<path id="Rectangle 7_4" d="M1119.14 883.264L1116.99 881.112L1114.84 883.264L1116.99 885.416L1119.14 883.264Z" fill="white" fill-opacity="0.24"/>
<path id="Rectangle 3_4" d="M1160.56 996.772L1157.34 993.545L1154.11 996.772L1157.34 1000L1160.56 996.772Z" fill="white" fill-opacity="0.04"/>
<path id="Rectangle 4_3" d="M1029.3 875.195L1027.15 873.043L1025 875.195L1027.15 877.347L1029.3 875.195Z" fill="white" fill-opacity="0.4"/>
<path id="Rectangle 1_5" d="M867 288L865 286L863 288L865 290L867 288Z" fill="white" fill-opacity="0.71"/>
<path id="Rectangle 2_5" d="M1083 268.951L1080.85 266.799L1078.7 268.951L1080.85 271.103L1083 268.951Z" fill="white" fill-opacity="0.04"/>
<path id="Rectangle 5_5" d="M1059.33 311.449L1056.1 308.221L1052.87 311.449L1056.1 314.677L1059.33 311.449Z" fill="white" fill-opacity="0.12"/>
<path id="Rectangle 6_5" d="M957.119 437.868L954.967 435.716L952.816 437.868L954.967 440.02L957.119 437.868Z" fill="white" fill-opacity="0.04"/>
<path id="Rectangle 7_5" d="M1014.14 344.264L1011.99 342.112L1009.84 344.264L1011.99 346.416L1014.14 344.264Z" fill="white" fill-opacity="0.24"/>
<path id="Rectangle 3_5" d="M1055.56 457.772L1052.34 454.545L1049.11 457.772L1052.34 461L1055.56 457.772Z" fill="white" fill-opacity="0.04"/>
<g id="Ellipse 2_2" filter="url(#filter3_f)">
<circle cx="1043" cy="208" r="48" transform="rotate(-180 1043 208)" fill="white" fill-opacity="0.01"/>
</g>
<g id="Ellipse 4_2" filter="url(#filter4_f)">
<circle cx="873.5" cy="191.5" r="19.5" transform="rotate(-180 873.5 191.5)" fill="white" fill-opacity="0.02"/>
</g>
<g id="Ellipse 3_2" filter="url(#filter5_f)">
<circle cx="888" cy="244" r="2" transform="rotate(-180 888 244)" fill="white" fill-opacity="0.13"/>
</g>
</g>
<defs>
<filter id="filter0_f" x="206" y="997" width="112" height="112" filterUnits="userSpaceOnUse" color-interpolation-filters="sRGB">
<feFlood flood-opacity="0" result="BackgroundImageFix"/>
<feBlend mode="normal" in="SourceGraphic" in2="BackgroundImageFix" result="shape"/>
<feGaussianBlur stdDeviation="4" result="effect1_foregroundBlur"/>
</filter>
<filter id="filter1_f" x="148" y="1073" width="55" height="55" filterUnits="userSpaceOnUse" color-interpolation-filters="sRGB">
<feFlood flood-opacity="0" result="BackgroundImageFix"/>
<feBlend mode="normal" in="SourceGraphic" in2="BackgroundImageFix" result="shape"/>
<feGaussianBlur stdDeviation="4" result="effect1_foregroundBlur"/>
</filter>
<filter id="filter2_f" x="269" y="1065" width="8" height="8" filterUnits="userSpaceOnUse" color-interpolation-filters="sRGB">
<feFlood flood-opacity="0" result="BackgroundImageFix"/>
<feBlend mode="normal" in="SourceGraphic" in2="BackgroundImageFix" result="shape"/>
<feGaussianBlur stdDeviation="1" result="effect1_foregroundBlur"/>
</filter>
<filter id="filter3_f" x="987" y="152" width="112" height="112" filterUnits="userSpaceOnUse" color-interpolation-filters="sRGB">
<feFlood flood-opacity="0" result="BackgroundImageFix"/>
<feBlend mode="normal" in="SourceGraphic" in2="BackgroundImageFix" result="shape"/>
<feGaussianBlur stdDeviation="4" result="effect1_foregroundBlur"/>
</filter>
<filter id="filter4_f" x="838" y="156" width="71" height="71" filterUnits="userSpaceOnUse" color-interpolation-filters="sRGB">
<feFlood flood-opacity="0" result="BackgroundImageFix"/>
<feBlend mode="normal" in="SourceGraphic" in2="BackgroundImageFix" result="shape"/>
<feGaussianBlur stdDeviation="8" result="effect1_foregroundBlur"/>
</filter>
<filter id="filter5_f" x="884" y="240" width="8" height="8" filterUnits="userSpaceOnUse" color-interpolation-filters="sRGB">
<feFlood flood-opacity="0" result="BackgroundImageFix"/>
<feBlend mode="normal" in="SourceGraphic" in2="BackgroundImageFix" result="shape"/>
<feGaussianBlur stdDeviation="1" result="effect1_foregroundBlur"/>
</filter>
<linearGradient id="paint0_linear" x1="1164.75" y1="899.008" x2="1147.56" y2="908.632" gradientUnits="userSpaceOnUse">
<stop stop-color="#2C76AB"/>
<stop offset="1" stop-color="#231E40"/>
</linearGradient>
<linearGradient id="paint1_linear" x1="983.595" y1="947.082" x2="975.002" y2="951.894" gradientUnits="userSpaceOnUse">
<stop stop-color="#2C76AB"/>
<stop offset="1" stop-color="#231E40"/>
</linearGradient>
<linearGradient id="paint2_linear" x1="1019.86" y1="886.71" x2="1006.97" y2="893.928" gradientUnits="userSpaceOnUse">
<stop stop-color="#2C76AB"/>
<stop offset="1" stop-color="#231E40"/>
</linearGradient>
<linearGradient id="paint3_linear" x1="1158.9" y1="711.841" x2="1150.31" y2="716.653" gradientUnits="userSpaceOnUse">
<stop stop-color="#2C76AB"/>
<stop offset="1" stop-color="#231E40"/>
</linearGradient>
<linearGradient id="paint4_linear" x1="1079.49" y1="842.197" x2="1070.9" y2="847.009" gradientUnits="userSpaceOnUse">
<stop stop-color="#2C76AB"/>
<stop offset="1" stop-color="#231E40"/>
</linearGradient>
<linearGradient id="paint5_linear" x1="1025.1" y1="682.934" x2="1012.21" y2="690.152" gradientUnits="userSpaceOnUse">
<stop stop-color="#2C76AB"/>
<stop offset="1" stop-color="#231E40"/>
</linearGradient>
<linearGradient id="paint6_linear" x1="1202.6" y1="853.434" x2="1194.01" y2="858.246" gradientUnits="userSpaceOnUse">
<stop stop-color="#2C76AB"/>
<stop offset="1" stop-color="#231E40"/>
</linearGradient>
</defs>
</svg>
