<svg width="1124" height="976" viewBox="0 0 1124 976" fill="none" xmlns="http://www.w3.org/2000/svg">
<path d="M1073.56 751.756L1079.55 757.749L1085.54 751.756L1079.55 745.762L1073.56 751.756Z" fill="url(#paint0_linear)" fill-opacity="0.24"/>
<path d="M899 797.456L901.997 800.452L904.993 797.456L901.997 794.459L899 797.456Z" fill="url(#paint1_linear)" fill-opacity="0.24"/>
<path d="M931.964 738.27L936.459 742.765L940.954 738.27L936.459 733.775L931.964 738.27Z" fill="url(#paint2_linear)" fill-opacity="0.24"/>
<path d="M1074.31 562.214L1077.3 565.211L1080.3 562.214L1077.3 559.218L1074.31 562.214Z" fill="url(#paint3_linear)" fill-opacity="0.24"/>
<path d="M994.894 692.571L997.891 695.568L1000.89 692.571L997.891 689.574L994.894 692.571Z" fill="url(#paint4_linear)" fill-opacity="0.24"/>
<path d="M937.208 534.495L941.703 538.99L946.198 534.495L941.703 530L937.208 534.495Z" fill="url(#paint5_linear)" fill-opacity="0.24"/>
<path d="M1118.01 703.808L1121 706.805L1124 703.808L1121 700.812L1118.01 703.808Z" fill="url(#paint6_linear)" fill-opacity="0.24"/>
<path d="M136.343 256.234L140.646 260.538L144.95 256.234L140.646 251.931L136.343 256.234Z" fill="white" fill-opacity="0.08"/>
<path d="M11 289.049L13.1518 291.201L15.3036 289.049L13.1518 286.897L11 289.049Z" fill="white" fill-opacity="0.04"/>
<path d="M34.6699 246.551L37.8976 249.779L41.1254 246.551L37.8976 243.323L34.6699 246.551Z" fill="white" fill-opacity="0.12"/>
<path d="M136.881 120.132L139.033 122.284L141.184 120.132L139.033 117.98L136.881 120.132Z" fill="white" fill-opacity="0.04"/>
<path d="M79.8584 213.736L82.0102 215.888L84.162 213.736L82.0102 211.584L79.8584 213.736Z" fill="white" fill-opacity="0.24"/>
<path d="M38.4355 100.228L41.6633 103.455L44.891 100.228L41.6633 97L38.4355 100.228Z" fill="white" fill-opacity="0.04"/>
<path d="M169.696 221.805L171.848 223.957L174 221.805L171.848 219.653L169.696 221.805Z" fill="white" fill-opacity="0.4"/>
<path d="M216 873L218 875L220 873L218 871L216 873Z" fill="white" fill-opacity="0.71"/>
<path d="M0 892.049L2.15182 894.201L4.30363 892.049L2.15182 889.897L0 892.049Z" fill="white" fill-opacity="0.04"/>
<path d="M23.6699 849.551L26.8976 852.779L30.1254 849.551L26.8976 846.323L23.6699 849.551Z" fill="white" fill-opacity="0.12"/>
<path d="M125.881 723.132L128.033 725.284L130.184 723.132L128.033 720.98L125.881 723.132Z" fill="white" fill-opacity="0.04"/>
<path d="M68.8584 816.736L71.0102 818.888L73.162 816.736L71.0102 814.584L68.8584 816.736Z" fill="white" fill-opacity="0.24"/>
<path d="M27.4355 703.228L30.6633 706.455L33.891 703.228L30.6633 700L27.4355 703.228Z" fill="white" fill-opacity="0.04"/>
<g filter="url(#filter0_f)">
<circle cx="184" cy="901" r="48" fill="white" fill-opacity="0.01"/>
</g>
<g filter="url(#filter1_f)">
<circle cx="97.5" cy="948.5" r="19.5" fill="white" fill-opacity="0.04"/>
</g>
<g filter="url(#filter2_f)">
<circle cx="195" cy="917" r="2" fill="white" fill-opacity="0.13"/>
</g>
<path d="M984.657 688.766L980.354 684.462L976.05 688.766L980.354 693.069L984.657 688.766Z" fill="white" fill-opacity="0.08"/>
<path d="M1110 655.951L1107.85 653.799L1105.7 655.951L1107.85 658.103L1110 655.951Z" fill="white" fill-opacity="0.04"/>
<path d="M1086.33 698.449L1083.1 695.221L1079.87 698.449L1083.1 701.677L1086.33 698.449Z" fill="white" fill-opacity="0.12"/>
<path d="M984.119 824.868L981.967 822.716L979.816 824.868L981.967 827.02L984.119 824.868Z" fill="white" fill-opacity="0.04"/>
<path d="M1041.14 731.264L1038.99 729.112L1036.84 731.264L1038.99 733.416L1041.14 731.264Z" fill="white" fill-opacity="0.24"/>
<path d="M1082.56 844.772L1079.34 841.545L1076.11 844.772L1079.34 848L1082.56 844.772Z" fill="white" fill-opacity="0.04"/>
<path d="M951.304 723.195L949.152 721.043L947 723.195L949.152 725.347L951.304 723.195Z" fill="white" fill-opacity="0.4"/>
<path d="M789 136L787 134L785 136L787 138L789 136Z" fill="white" fill-opacity="0.71"/>
<path d="M1005 116.951L1002.85 114.799L1000.7 116.951L1002.85 119.103L1005 116.951Z" fill="white" fill-opacity="0.04"/>
<path d="M981.33 159.449L978.102 156.221L974.875 159.449L978.102 162.677L981.33 159.449Z" fill="white" fill-opacity="0.12"/>
<path d="M879.119 285.868L876.967 283.716L874.816 285.868L876.967 288.02L879.119 285.868Z" fill="white" fill-opacity="0.04"/>
<path d="M936.142 192.264L933.99 190.112L931.838 192.264L933.99 194.416L936.142 192.264Z" fill="white" fill-opacity="0.24"/>
<path d="M977.564 305.772L974.337 302.545L971.109 305.772L974.337 309L977.564 305.772Z" fill="white" fill-opacity="0.04"/>
<g filter="url(#filter3_f)">
<circle cx="965" cy="56" r="48" transform="rotate(-180 965 56)" fill="white" fill-opacity="0.01"/>
</g>
<g filter="url(#filter4_f)">
<circle cx="795.5" cy="39.5" r="19.5" transform="rotate(-180 795.5 39.5)" fill="white" fill-opacity="0.02"/>
</g>
<g filter="url(#filter5_f)">
<circle cx="810" cy="92" r="2" transform="rotate(-180 810 92)" fill="white" fill-opacity="0.13"/>
</g>
<defs>
<filter id="filter0_f" x="128" y="845" width="112" height="112" filterUnits="userSpaceOnUse" color-interpolation-filters="sRGB">
<feFlood flood-opacity="0" result="BackgroundImageFix"/>
<feBlend mode="normal" in="SourceGraphic" in2="BackgroundImageFix" result="shape"/>
<feGaussianBlur stdDeviation="4" result="effect1_foregroundBlur"/>
</filter>
<filter id="filter1_f" x="70" y="921" width="55" height="55" filterUnits="userSpaceOnUse" color-interpolation-filters="sRGB">
<feFlood flood-opacity="0" result="BackgroundImageFix"/>
<feBlend mode="normal" in="SourceGraphic" in2="BackgroundImageFix" result="shape"/>
<feGaussianBlur stdDeviation="4" result="effect1_foregroundBlur"/>
</filter>
<filter id="filter2_f" x="191" y="913" width="8" height="8" filterUnits="userSpaceOnUse" color-interpolation-filters="sRGB">
<feFlood flood-opacity="0" result="BackgroundImageFix"/>
<feBlend mode="normal" in="SourceGraphic" in2="BackgroundImageFix" result="shape"/>
<feGaussianBlur stdDeviation="1" result="effect1_foregroundBlur"/>
</filter>
<filter id="filter3_f" x="909" y="0" width="112" height="112" filterUnits="userSpaceOnUse" color-interpolation-filters="sRGB">
<feFlood flood-opacity="0" result="BackgroundImageFix"/>
<feBlend mode="normal" in="SourceGraphic" in2="BackgroundImageFix" result="shape"/>
<feGaussianBlur stdDeviation="4" result="effect1_foregroundBlur"/>
</filter>
<filter id="filter4_f" x="760" y="4" width="71" height="71" filterUnits="userSpaceOnUse" color-interpolation-filters="sRGB">
<feFlood flood-opacity="0" result="BackgroundImageFix"/>
<feBlend mode="normal" in="SourceGraphic" in2="BackgroundImageFix" result="shape"/>
<feGaussianBlur stdDeviation="8" result="effect1_foregroundBlur"/>
</filter>
<filter id="filter5_f" x="806" y="88" width="8" height="8" filterUnits="userSpaceOnUse" color-interpolation-filters="sRGB">
<feFlood flood-opacity="0" result="BackgroundImageFix"/>
<feBlend mode="normal" in="SourceGraphic" in2="BackgroundImageFix" result="shape"/>
<feGaussianBlur stdDeviation="1" result="effect1_foregroundBlur"/>
</filter>
<linearGradient id="paint0_linear" x1="1086.75" y1="747.008" x2="1069.56" y2="756.632" gradientUnits="userSpaceOnUse">
<stop stop-color="#2C76AB"/>
<stop offset="1" stop-color="#231E40"/>
</linearGradient>
<linearGradient id="paint1_linear" x1="905.595" y1="795.082" x2="897.002" y2="799.894" gradientUnits="userSpaceOnUse">
<stop stop-color="#2C76AB"/>
<stop offset="1" stop-color="#231E40"/>
</linearGradient>
<linearGradient id="paint2_linear" x1="941.856" y1="734.71" x2="928.967" y2="741.928" gradientUnits="userSpaceOnUse">
<stop stop-color="#2C76AB"/>
<stop offset="1" stop-color="#231E40"/>
</linearGradient>
<linearGradient id="paint3_linear" x1="1080.9" y1="559.841" x2="1072.31" y2="564.653" gradientUnits="userSpaceOnUse">
<stop stop-color="#2C76AB"/>
<stop offset="1" stop-color="#231E40"/>
</linearGradient>
<linearGradient id="paint4_linear" x1="1001.49" y1="690.197" x2="992.897" y2="695.009" gradientUnits="userSpaceOnUse">
<stop stop-color="#2C76AB"/>
<stop offset="1" stop-color="#231E40"/>
</linearGradient>
<linearGradient id="paint5_linear" x1="947.1" y1="530.934" x2="934.211" y2="538.152" gradientUnits="userSpaceOnUse">
<stop stop-color="#2C76AB"/>
<stop offset="1" stop-color="#231E40"/>
</linearGradient>
<linearGradient id="paint6_linear" x1="1124.6" y1="701.434" x2="1116.01" y2="706.246" gradientUnits="userSpaceOnUse">
<stop stop-color="#2C76AB"/>
<stop offset="1" stop-color="#231E40"/>
</linearGradient>
</defs>
</svg>
